/* XPM */
static char *_c1976c095a1424acd280d2af4397e32[] = {
/* columns rows colors chars-per-pixel */
"64 64 43 1 ",
"  c black",
". c #101010",
"X c #111111",
"o c #202020",
"O c #272727",
"+ c gray19",
"@ c gray25",
"# c gray26",
"$ c #4E4E4E",
"% c #505050",
"& c #606060",
"* c gray40",
"= c gray44",
"- c #B96E14",
"; c #BD7218",
": c #CA7F24",
"> c #F7931A",
", c #F89A28",
"< c #F8A137",
"1 c #F9A745",
"2 c #F9AE53",
"3 c #FAB562",
"4 c #FABC70",
"5 c #FBC27E",
"6 c #808080",
"7 c #9F9F9F",
"8 c #ACACAC",
"9 c #AFAFAF",
"0 c gray75",
"q c #FBC98D",
"w c #FCD09B",
"e c #FCD7A9",
"r c #FDDDB7",
"t c gray81",
"y c #D0D0D0",
"u c #DFDFDF",
"i c #FDE4C6",
"p c #FEEBD4",
"a c #EFEFEF",
"s c #FEF2E2",
"d c #FFF8F1",
"f c gray100",
"g c None",
/* pixels */
"ggggggggggggggggggggggggg>>>>>>-       ggggggggggggggggggggggggg",
"gggggggggggggggggggggg>>>>>>>>>-          gggggggggggggggggggggg",
"ggggggggggggggggggg>>>>>>>>>>>>-         .@@*ggggggggggggggggggg",
"ggggggggggggggggg>>>>>>>>>>>>>>-        @ffffffggggggggggggggggg",
"ggggggggggggggg>>>>>>>>>>>>>>>>-        @fu666666ggggggggggggggg",
"gggggggggggggg>>>>>>>>>>>>>>>>>-        @f0       gggggggggggggg",
"gggggggggggg>>>>>>>>>>>>>>>>>>>-        @f0         gggggggggggg",
"ggggggggggg>>>>>>>>>>>>>>>>>>>>-        @f0         Oggggggggggg",
"gggggggggg>>>>>>>>>>>>>>>>>>>>>-        @f0          fgggggggggg",
"ggggggggg>>>>>>>>>>>>>>>>>>>>>>-        @f0          0fggggggggg",
"gggggggg>>>>>>>>>>>>>>>>>>>>>>>-        @f0          0f$gggggggg",
"ggggggg>>>>>>>>>>>>>>>>>>>>>>>>-        @f0          ff+ ggggggg",
"gggggg>>>>>>>>>>>>>>>>>>>>>>>>>-        @f0         &fu   gggggg",
"gggggg>>>>>>>>>>>>>>>>>>>>>>>>>-        @f0        .af=   gggggg",
"ggggg>>>>>>>>>>>>>>>>>>>>>>>>>>-        @f0       otf7     ggggg",
"gggg>>>>>>qqq2>2qq4>>>>>>>>>>>>-        @f0     .6af7       gggg",
"gggg>>>>>>fffq>qffi>>>>>>>>>>>>-        @f0 @@69afu%        gggg",
"ggg>>>>>>>fffq>qffi>>>>>>>>>>>>-        @f0 fffa9&           ggg",
"ggg>>>>>>>fffq>qffi>>>>>>>>>>>>-        @f0 @@               ggg",
"gg>>>>>>>>fffq>qffi>>>>>>>>>>>>-        @f0                   gg",
"gg>>qqqqqqfffsisffsq41>>>>>>>>>-        @f0                   gg",
"gg>>ffffffffffffffffffs4>>>>>>>-        @f0                   gg",
"g>>>ffffffffffffffffffffp,>>>>>-        @f0                    g",
"g>>>fffffffffffffffffffffw>>>>>-        @f0                    g",
"g>>>>>>5fffffw>>23efffffff>>>>>-        @f0                    g",
">>>>>>>>fffffq>>>>>3ffffff2>>>>-        @f0                     ",
">>>>>>>>fffffq>>>>>>pfffff2>>>>-        @f0                     ",
">>>>>>>>fffffq>>>>>>pfffff1>>>>-        @f0                     ",
">>>>>>>>fffffq>>>>>3fffffs>>>>>-        @ft                     ",
">>>>>>>>fffffq>>13effffff3>>>>>-                                ",
">>>>>>>>ffffffffffffffff5>>>>>>-                                ",
">>>>>>>>fffffffffffffffffe,>>>>;XXX.....XXXXXXXXXXXXXXXXXXX.....",
">>>>>>>>ffffffffffffffffffp,>>>:################################",
">>>>>>>>fffffe2222qpfffffffq>>>:###############@################",
">>>>>>>>fffffq>>>>>>2dfffffp>>>:########@@#@#@#@@@##@@#@#@######",
">>>>>>>>fffffq>>>>>>>qffffff>>>:#####@yfffffffffffffffffff######",
">>>>>>>>fffffq>>>>>>>2ffffff>>>:######9yyyyyyyyffyyyyyyyyy######",
">>>>>>>>fffffq>>>>>>>wfffffd>>>:#######@#####@@ff@##############",
">>>>>>>>fffffq>>>>>>5ffffffr>>>:##############@ff@##############",
"g>>><22rfffffe225qrdfffffff4>>>:##############@ff@#############g",
"g>>>qfffffffffffffffffffffp>>>>:###############ff##############g",
"g>>>iffffffffffffffffffffp,>>>>:###############ff##############g",
"gg>>sffffffffffffffffffp4>>>>>>:##############@ff@############gg",
"gg>>qqqqqqfffiqiffsq42,>>>>>>>>:##############@ff@############gg",
"gg>>>>>>>>fffq>qffi>>>>>>>>>>>>:##############@ff@############gg",
"ggg>>>>>>>fffq>qffi>>>>>>>>>>>>:##############@ff@###########ggg",
"ggg>>>>>>>fffq>qffi>>>>>>>>>>>>:###############ff############ggg",
"gggg>>>>>>fffq>qffi>>>>>>>>>>>>:###############ff###########gggg",
"gggg>>>>>>qqq2>2qq4>>>>>>>>>>>>:##############@ff@##########gggg",
"ggggg>>>>>>>>>>>>>>>>>>>>>>>>>>:##############@ff@#########ggggg",
"gggggg>>>>>>>>>>>>>>>>>>>>>>>>>:##############@ff#########gggggg",
"gggggg>>>>>>>>>>>>>>>>>>>>>>>>>:##############@ff#########gggggg",
"ggggggg>>>>>>>>>>>>>>>>>>>>>>>>:###############ff@#######ggggggg",
"gggggggg>>>>>>>>>>>>>>>>>>>>>>>:###############ff@######gggggggg",
"ggggggggg>>>>>>>>>>>>>>>>>>>>>>:##############@ff@#####ggggggggg",
"gggggggggg>>>>>>>>>>>>>>>>>>>>>:##############@ff@####gggggggggg",
"ggggggggggg>>>>>>>>>>>>>>>>>>>>:##############@ff####ggggggggggg",
"gggggggggggg>>>>>>>>>>>>>>>>>>>:##############@ff###gggggggggggg",
"gggggggggggggg>>>>>>>>>>>>>>>>>:###############ff@gggggggggggggg",
"ggggggggggggggg>>>>>>>>>>>>>>>>:###############ffggggggggggggggg",
"ggggggggggggggggg>>>>>>>>>>>>>>:##############@ggggggggggggggggg",
"ggggggggggggggggggg>>>>>>>>>>>>:#############ggggggggggggggggggg",
"gggggggggggggggggggggg>>>>>>>>>:##########gggggggggggggggggggggg",
"ggggggggggggggggggggggggg>>>>>>:#######ggggggggggggggggggggggggg"
};
