/* XPM */
static char *ba2392d1210f4960fee519fdf04b72c5[] = {
/* columns rows colors chars-per-pixel */
"32 32 36 1 ",
"  c black",
". c #101010",
"X c #111111",
"o c gray25",
"O c gray26",
"+ c #555555",
"@ c #606060",
"# c gray44",
"$ c #B96E14",
"% c #BD7218",
"& c #CA7F24",
"* c #F7931A",
"= c #F89A28",
"- c #F8A137",
"; c #F9A745",
": c #F9AE53",
"> c #FAB562",
", c #FABC70",
"< c #808080",
"1 c #9F9F9F",
"2 c gray63",
"3 c gray69",
"4 c gray75",
"5 c #FBC98D",
"6 c #FCD09B",
"7 c #FCD7A9",
"8 c gray81",
"9 c #D0D0D0",
"0 c #DFDFDF",
"q c #FDE4C6",
"w c #FEEBD4",
"e c gray92",
"r c #FEF2E2",
"t c #FFF8F1",
"y c gray100",
"u c None",
/* pixels */
"uuuuuuuuuuu****$     uuuuuuuuuuu",
"uuuuuuuuu******$    #4euuuuuuuuu",
"uuuuuuu********$    41oo+uuuuuuu",
"uuuuuu*********$    4<    uuuuuu",
"uuuuu**********$    4<    <uuuuu",
"uuuu***********$    4<    <4uuuu",
"uuu************$    4<   .0@ uuu",
"uu***:;=:-*****$    4<  o81   uu",
"uu***yq:y5*****$    8<800@    uu",
"u****yq:y5*****$    4#o        u",
"u*qqqyyyyrq,***$    4#         u",
"**yyyyyyyyyyq**$    8<          ",
"***;yyw*:7yyy-*$    4#          ",
"****yyq***yyy:*$    8<          ",
"****yyq*:7yyr**$    @o          ",
"****yyyyyyyy7=*%....XXXXXXX.....",
"****yytqqryyyq*&OOOOOOOOOOOOOOOO",
"****yyq***6yyy*&OOO2222222222OOO",
"****yyq***>yyy*&OOO2222992222OOO",
"**;,yyw::5tyyr*&OOOOOOO22OOOOOOO",
"**ryyyyyyyyyy>*&OOOOOOO22OOOOOOO",
"u*qqqytwyrq6-**&OOOOOOO22OOOOOOu",
"u****yq:y5*****&OOOOOOO22OOOOOOu",
"uu***yq:y5*****&OOOOOOO22OOOOOuu",
"uu***:;=:-*****&OOOOOOO22OOOOOuu",
"uuu************&OOOOOOO22OOOOuuu",
"uuuu***********&OOOOOOO22OOOuuuu",
"uuuuu**********&OOOOOOO22OOuuuuu",
"uuuuuu*********&OOOOOOO22Ouuuuuu",
"uuuuuuu********&OOOOOOO23uuuuuuu",
"uuuuuuuuu******&OOOOOOOuuuuuuuuu",
"uuuuuuuuuuu****&OOOOOuuuuuuuuuuu"
};
