/* XPM */
static char *_541d44397bf48df9a08be61a7f3963d[] = {
/* columns rows colors chars-per-pixel */
"16 16 35 1 ",
"  c black",
". c #111111",
"X c gray25",
"o c gray26",
"O c #4E4E4E",
"+ c #5A5A5A",
"@ c #606060",
"# c gray44",
"$ c #717171",
"% c #7C7C7C",
"& c #B96E14",
"* c #BD7218",
"= c #CA7F24",
"- c #F7931A",
"; c #F89A28",
": c #F8A137",
"> c #F9A745",
", c #F9AE53",
"< c #FAB562",
"1 c #FBC27E",
"2 c gray56",
"3 c #959595",
"4 c #9F9F9F",
"5 c #BBBBBB",
"6 c gray75",
"7 c #FBC98D",
"8 c #FCD7A9",
"9 c #FDDDB7",
"0 c gray81",
"q c #FDE4C6",
"w c #FEEBD4",
"e c #FEF2E2",
"r c #FFF8F1",
"t c gray100",
"y c None",
/* pixels */
"yyyyy--&  3yyyyy",
"yyy----&  0XOyyy",
"yy-----&  6  5yy",
"y-:>>--&  6 #2 y",
"y-7qq--&  64@  y",
"-tttte,&  6     ",
"-;t7<t9&  6     ",
"--twwt7*..X.....",
"--tq7rt=X+$$$$+o",
"-<t8,et=X+$33$+o",
"-ttttr7=ooo$$ooo",
"y-7qq--=ooo#$ooy",
"y-:>>--=ooo$$ooy",
"yy-----=ooo$$oyy",
"yyy----=ooo$%yyy",
"yyyyy--=oooyyyyy"
};
